<svg width="57" height="30" viewBox="0 0 57 30" fill="none" xmlns="http://www.w3.org/2000/svg">
<path d="M1.69161 1.1194H4.56C5.05032 1.1194 5.78581 1.14428 6.76645 1.19403C6.76645 1.26866 6.84 1.34328 6.9871 1.41791L6.84 2.31343L6.91355 3.35821C6.86452 4.27861 6.84 5.0995 6.84 5.8209H6.76645C6.76645 6.09453 7.20774 6.24378 8.09032 6.26866C8.09032 6.31841 8.11484 6.34328 8.16387 6.34328C8.16387 6.36816 8.13935 6.46766 8.09032 6.64179C8.13935 6.90299 8.16387 7.05224 8.16387 7.08955C8.10258 7.33831 8.02903 7.46269 7.94323 7.46269H7.57548C7.4529 7.36318 7.35484 7.31343 7.28129 7.31343C7.08516 7.36318 6.9871 7.51244 6.9871 7.76119C7.03613 7.91045 7.18323 7.98507 7.42839 7.98507H7.94323L8.16387 8.13433C8.11484 8.47015 8.06581 8.69403 8.01677 8.80597L8.09032 9.1791L8.01677 9.85075C8.11484 10.0746 8.2129 10.199 8.31097 10.2239C8.5071 10.2239 8.82581 9.57711 9.2671 8.28358C9.2671 8.17164 9.02194 8.07214 8.53161 7.98507L8.45807 7.83582V7.61194C8.53161 7.33831 8.9729 7.16418 9.78194 7.08955C9.96581 6.95274 10.0884 6.72886 10.1497 6.41791C10.0516 6.41791 10.0026 6.36816 10.0026 6.26866L9.85548 6.34328H9.56129C9.48774 6.34328 9.38968 6.24378 9.2671 6.04478V5.89552C10.0516 4.09204 10.5665 3.14677 10.8116 3.0597H14.8568L15.5923 3.28358L16.0335 3.20896L16.1071 3.35821V3.50746C15.3594 5.01244 14.9426 5.80846 14.8568 5.89552V6.04478C14.8568 6.1194 14.9794 6.21891 15.2245 6.34328L15.3716 6.26866H15.6658C15.7394 6.26866 15.8129 6.34328 15.8865 6.49254C15.8865 6.79104 15.6658 7.06468 15.2245 7.31343H14.7097C14.44 7.31343 14.2439 7.43781 14.1213 7.68657V7.76119C14.1213 7.88557 14.4155 7.98507 15.0039 8.0597V8.28358C14.7219 8.6194 14.5013 9.01741 14.3419 9.47761C14.06 10.0249 13.8884 10.2985 13.8271 10.2985H13.6065C13.4961 10.2985 13.3981 10.2736 13.3123 10.2239C12.9445 10.2239 12.6013 10.6219 12.2826 11.4179C12.0865 11.6045 11.6452 12.5 10.9587 14.1045C11.4 14.8507 11.9884 16.3433 12.7239 18.5821C12.8832 18.7811 13.1774 19.5274 13.6065 20.8209C13.8639 21.4677 14.1826 22.1642 14.5626 22.9104V22.9851C14.5626 23.1219 14.2439 23.2214 13.6065 23.2836C13.5574 23.3831 13.5329 23.4577 13.5329 23.5075C13.7658 24.403 14.011 24.8507 14.2684 24.8507C15.4452 24.9502 16.0335 25.1244 16.0335 25.3731C16.0335 25.51 16.2787 26.1567 16.769 27.3134C17.1 27.9851 17.4187 28.7811 17.7252 29.7015C17.7252 29.9005 16.72 30 14.7097 30H14.6361C14.0845 30 13.3735 29.9751 12.5032 29.9254C12.4174 29.9751 12.3194 30 12.209 30C11.9639 30 11.4735 28.8557 10.7381 26.5672C10.3948 25.5721 10.1006 25.0746 9.85548 25.0746C8.67871 25.0746 8.09032 24.8507 8.09032 24.403C8.04129 24.0796 7.91871 23.7562 7.72258 23.4328C7.72258 23.2214 7.96774 23.097 8.45807 23.0597V23.1343C8.55613 23.0846 8.62968 23.0597 8.67871 23.0597V22.9851C8.49484 22.102 8.27419 21.4552 8.01677 21.0448C7.8329 20.3483 7.63677 20 7.42839 20C7.03613 20.6343 6.84 21.1816 6.84 21.6418V22.4627C6.93806 22.8109 6.9871 23.01 6.9871 23.0597C6.9871 23.1592 6.93806 23.209 6.84 23.209H6.25161C5.95742 23.209 5.81032 23.3582 5.81032 23.6567V24.1791C5.61419 24.4776 5.44258 24.6269 5.29548 24.6269V24.7761H5.36903C5.77355 24.7761 6.23936 24.8756 6.76645 25.0746H6.84L7.35484 24.9254L7.50194 25.1493C7.50194 25.2985 7.47742 25.4726 7.42839 25.6716C7.47742 26.4179 7.50194 27.0398 7.50194 27.5373C7.50194 27.6617 7.47742 27.8607 7.42839 28.1343C7.47742 28.3209 7.50194 28.5448 7.50194 28.806C7.4529 29.1542 7.42839 29.3532 7.42839 29.403C7.52645 29.5647 7.57548 29.6891 7.57548 29.7761L7.42839 29.8507H6.9871C6.27613 29.9502 5.90839 30 5.88387 30C5.60194 30 5.43032 29.9751 5.36903 29.9254C4.95226 29.9751 4.60903 30 4.33935 30H2.35355C2.18194 30 1.98581 29.9005 1.76516 29.7015C1.81419 29.204 1.83871 28.8308 1.83871 28.5821V27.3134C1.83871 26.8905 1.81419 26.4428 1.76516 25.9701V25.1493C0.588387 25.0995 0 24.9502 0 24.7015C0 24.5771 0.0490323 24.3284 0.147097 23.9552C0.0980645 23.7562 0.0735484 23.5572 0.0735484 23.3582C0.232903 23.1716 0.576129 23.0473 1.10323 22.9851C1.20129 22.7861 1.25032 22.6119 1.25032 22.4627C1.25032 22.4129 1.22581 22.3881 1.17677 22.3881L1.25032 21.9403C1.25032 21.592 1.22581 21.4179 1.17677 21.4179C1.22581 20.9204 1.25032 20.5473 1.25032 20.2985V17.3881C1.25032 15.9204 1.22581 14.3035 1.17677 12.5373C1.22581 12.1891 1.25032 11.6915 1.25032 11.0448L1.17677 10.597C1.17677 10.2985 1.56903 10.1244 2.35355 10.0746C2.35355 10.0249 2.37806 10 2.4271 10L2.35355 9.55224C2.40258 9.02985 2.4271 8.60697 2.4271 8.28358C2.29226 8.12189 1.94903 8.02239 1.39742 7.98507L1.17677 7.68657C1.32387 7.33831 1.54452 7.16418 1.83871 7.16418C1.88774 7.16418 1.91226 7.18905 1.91226 7.23881C2.20645 7.17662 2.35355 7.10199 2.35355 7.01493V6.49254C2.35355 6.39303 2.30452 6.34328 2.20645 6.34328L1.76516 6.41791C1.54452 6.33085 1.34839 6.15672 1.17677 5.89552V4.77612C1.17677 4.5398 1.20129 4.29104 1.25032 4.02985C1.20129 3.84328 1.17677 3.6194 1.17677 3.35821L1.25032 2.46269L1.17677 2.08955L1.25032 1.71642C1.15226 1.55473 1.10323 1.43035 1.10323 1.34328C1.34839 1.19403 1.54452 1.1194 1.69161 1.1194ZM12.0619 1.1194V1.19403L12.209 1.1194H12.4297C12.4787 1.1194 12.5032 1.14428 12.5032 1.19403L12.6503 1.1194H13.4594C13.5084 1.1194 13.5329 1.14428 13.5329 1.19403L13.68 1.1194H14.8568C14.9058 1.1194 14.9303 1.14428 14.9303 1.19403C15.0284 1.14428 15.1019 1.1194 15.151 1.1194C15.2735 1.1194 15.911 1.14428 17.0632 1.19403L17.2103 1.41791C16.8548 2.16418 16.4871 2.53731 16.1071 2.53731H11.2529C11.0568 2.43781 10.9587 2.31343 10.9587 2.16418L11.4735 1.26866C11.6574 1.16915 11.8535 1.1194 12.0619 1.1194ZM7.35484 8.73134L7.28129 8.8806V8.95522C7.29355 9.05473 7.34258 9.10448 7.42839 9.10448C7.52645 9.05473 7.6 9.02985 7.64903 9.02985V8.80597L7.35484 8.73134ZM4.04516 9.02985L3.82452 9.32836V9.62687L4.19226 9.70149H4.7071C4.78065 9.70149 4.85419 9.62687 4.92774 9.47761C4.92774 9.29105 4.63355 9.14179 4.04516 9.02985ZM10.8116 12.5373V12.6866C10.8852 12.6866 10.9587 12.6119 11.0323 12.4627V12.3881H10.9587C10.8606 12.4005 10.8116 12.4502 10.8116 12.5373ZM11.4735 17.2388V17.5373H11.6206V17.3881C11.6206 17.2886 11.5716 17.2388 11.4735 17.2388Z" fill="white"/>
<path d="M19.2697 0H19.7845C19.8458 0 20.1155 0.0497512 20.5935 0.149254C21.2555 0.0497512 21.6723 0 21.8439 0H22.2116C22.371 0 22.4935 0.0248756 22.5794 0.0746269L23.0206 0H23.3884C23.8174 0 24.4794 0.0746269 25.3742 0.223881C25.6439 0.174129 25.84 0.149254 25.9626 0.149254L26.1097 0.373134L25.9626 0.597015L26.0361 1.04478H25.8155L25.4477 0.522388C25.3497 0.572139 25.2761 0.597015 25.2271 0.597015V0.895522C25.4355 1.30597 25.7297 1.65423 26.1097 1.9403C26.2935 2.17662 26.5142 2.62438 26.7716 3.28358C26.8206 3.28358 26.8452 3.30846 26.8452 3.35821L27.2129 3.28358C27.7032 3.28358 27.9484 3.58209 27.9484 4.1791C27.9484 4.39055 27.6297 4.51493 26.9923 4.55224C26.8942 4.86318 26.8452 5.06219 26.8452 5.14925C26.9432 5.52239 26.9923 5.87065 26.9923 6.19403V6.41791C27.1271 6.51741 27.2742 7.26368 27.4335 8.65672C27.4703 8.65672 27.5439 8.95522 27.6542 9.55224L27.5806 9.92537C27.6787 10.1617 27.8503 10.8582 28.0955 12.0149L28.2426 12.0896H28.7574C29.1374 12.0896 29.3581 12.4378 29.4194 13.1343L29.7871 13.209H30.0813C30.2897 13.209 30.4123 12.9104 30.449 12.3134C30.351 12.2637 30.2774 12.2388 30.2284 12.2388C30.0568 12.2886 29.9587 12.3134 29.9342 12.3134C29.6645 12.2139 29.4684 12.0896 29.3458 11.9403C29.64 9.93781 29.8606 8.6194 30.0077 7.98507C30.2161 5.54726 30.4858 4.32836 30.8168 4.32836C30.9271 4.32836 31.0252 4.30348 31.111 4.25373L31.2581 4.32836C31.5523 4.26617 31.6994 4.19154 31.6994 4.10448V3.65672C31.6994 3.54478 31.5768 3.47015 31.3316 3.43284L30.9639 3.50746C30.7677 3.30846 30.6697 3.1592 30.6697 3.0597C30.9394 1.19403 31.16 0.174129 31.3316 0H36.8477C37.9755 0.0995025 38.5639 0.199005 38.6129 0.298507L38.5394 1.04478V2.91045C38.5394 3.25871 38.8826 3.43284 39.569 3.43284C39.7161 3.64428 39.7897 3.84328 39.7897 4.02985C39.6671 4.35323 39.5445 4.52736 39.4219 4.55224L38.9806 4.47761C38.809 4.47761 38.6374 4.75124 38.4658 5.29851C37.4852 5.34826 36.7497 5.37313 36.2594 5.37313H34.9355C34.3961 5.37313 34.1265 5.44776 34.1265 5.59701V5.67164C34.1265 5.80846 34.3716 5.90796 34.8619 5.97015H36.1858C37.6445 5.97015 38.4535 6.04478 38.6129 6.19403L38.5394 7.08955V11.8657C38.5394 12.0274 38.9561 12.2015 39.7897 12.3881V12.5373C39.7897 13.0348 39.5445 13.2836 39.0542 13.2836C38.711 13.2836 38.5394 13.4577 38.5394 13.806C38.5394 13.9179 38.5639 14.0174 38.6129 14.1045C38.5639 14.3532 38.5148 14.4776 38.4658 14.4776L38.5394 15V17.8358C38.5394 18.1095 38.5639 18.4577 38.6129 18.8806C38.5639 18.9677 38.5394 19.092 38.5394 19.2537C38.5884 19.3532 38.6129 19.4279 38.6129 19.4776C38.429 19.6269 38.2574 19.7015 38.0981 19.7015C37.9877 19.7015 37.8897 19.6766 37.8039 19.6269C36.9213 19.6766 36.48 19.7761 36.48 19.9254V20.1493C36.48 20.2239 36.5536 20.2985 36.7006 20.3731H36.8477C37.0071 20.3731 37.1297 20.3483 37.2155 20.2985C38.0981 20.3483 38.5394 20.4478 38.5394 20.597V23.209C38.5394 23.6567 38.8826 23.8806 39.569 23.8806H40.0839C40.1574 23.8806 40.2555 23.9801 40.3781 24.1791C40.28 24.291 40.2065 24.7886 40.1574 25.6716L40.231 25.8209C40.231 25.8582 40.2065 26.0572 40.1574 26.4179C40.1574 26.6542 40.2065 27.3507 40.3045 28.5075C40.231 28.7065 40.1574 28.806 40.0839 28.806H39.9368C39.8877 28.806 39.8632 28.7811 39.8632 28.7313C39.6548 28.8308 39.2626 28.8806 38.6865 28.8806H37.0684L36.6271 28.806C36.5413 28.8557 36.4432 28.8806 36.3329 28.8806C36.2103 28.8806 36.0142 28.8557 35.7445 28.806C35.4748 28.8557 35.2787 28.8806 35.1561 28.8806L34.7884 28.6567C34.8374 27.9851 34.8619 27.4876 34.8619 27.1642V26.791C34.8619 26.6169 34.8374 26.393 34.7884 26.1194C34.7884 26.0697 34.8129 26.0448 34.8619 26.0448L34.7884 25.5224V24.0299L34.4206 23.9552H33.9058C33.771 23.9552 33.6484 24.3532 33.5381 25.1493L33.6116 25.4478C33.3174 26.2811 33.1703 26.8532 33.1703 27.1642C33.1703 28.2587 32.9987 28.806 32.6555 28.806C32.3981 28.806 31.9077 28.8308 31.1845 28.8806L30.449 28.806C29.9342 28.8557 29.3703 28.8806 28.7574 28.8806H28.6839L28.2426 28.806C28.1568 28.8557 28.0342 28.8806 27.8748 28.8806H27.8013C27.5684 28.8806 27.3723 28.0597 27.2129 26.4179C27.1516 26.4179 27.1026 26.3184 27.0658 26.1194L27.1394 25.9701C26.9555 24.6269 26.8084 23.9552 26.6981 23.9552H26.3303L25.5948 23.8806C25.4845 23.9925 25.3865 24.3657 25.3006 25L25.5213 26.2687L25.4477 26.5672L25.5213 26.9403C25.4232 27.1642 25.3252 27.2886 25.2271 27.3134L25.5213 27.9104C25.4845 28.5075 25.3865 28.806 25.2271 28.806H24.1974C24.0871 28.806 23.989 28.8308 23.9032 28.8806C23.8542 28.8806 23.8297 28.8557 23.8297 28.806L23.4619 28.8806H21.329C20.6426 28.8806 20.2994 28.7811 20.2994 28.5821C20.3361 27.7861 20.3852 27.3881 20.4465 27.3881L20.3729 26.8657V26.0448C20.3729 25.7711 20.3974 25.4229 20.4465 25C20.3484 24.7512 20.2994 24.5771 20.2994 24.4776L20.5935 24.2537H21.0348C21.6723 24.2537 21.991 24.1791 21.991 24.0299V23.806C21.991 23.7313 21.8929 23.6567 21.6968 23.5821C21.66 23.5821 21.5129 23.607 21.2555 23.6567C21.1084 23.6567 21.0348 23.6318 21.0348 23.5821L20.2994 23.6567H19.4903C18.9019 23.6567 18.6077 23.5572 18.6077 23.3582V15.3731C18.6077 15.199 18.5832 14.9751 18.5342 14.7015C18.5832 14.602 18.6077 14.5274 18.6077 14.4776C18.6077 14.4279 18.5832 14.3532 18.5342 14.2537C18.5342 13.5075 18.7794 13.1343 19.2697 13.1343H19.7845L19.8581 12.8358C19.8581 12.3881 19.4903 12.1642 18.7548 12.1642L18.5342 11.8657V10.5224C18.5342 10.3109 18.5587 10.0373 18.6077 9.70149C18.6077 9.65174 18.5832 9.62687 18.5342 9.62687L18.6077 8.8806V8.35821C18.6077 8.12189 18.5832 7.87313 18.5342 7.61194C18.5832 7.02736 18.6813 6.5796 18.8284 6.26866C18.7303 5.89552 18.6813 5.67164 18.6813 5.59701C18.6813 4.85075 18.9755 4.47761 19.5639 4.47761C19.6987 4.4403 19.8213 4.31592 19.9316 4.10448V3.50746C19.9316 3.40796 19.8826 3.35821 19.7845 3.35821H19.6374C19.5884 3.35821 19.3923 3.40796 19.049 3.50746H18.9755C18.7671 3.38308 18.62 3.20896 18.5342 2.98507C18.5342 2.92289 18.5587 2.67413 18.6077 2.23881L18.5342 1.04478C18.6323 0.746269 18.7058 0.597015 18.7548 0.597015L18.6813 0.447761V0.373134C18.8039 0.124378 19 0 19.2697 0ZM24.8594 3.8806L24.7123 4.10448V4.25373C24.8348 4.50249 25.031 4.62687 25.3006 4.62687L25.7419 4.55224C25.9994 4.60199 26.2445 4.62687 26.4774 4.62687C26.5265 4.62687 26.6245 4.52736 26.7716 4.32836C26.6735 4.10448 26.5755 3.9801 26.4774 3.95522H25.9626C25.7174 3.95522 25.3497 3.93035 24.8594 3.8806ZM26.4774 6.56716L26.4039 6.71642L26.4774 7.91045C26.551 7.91045 26.649 7.56219 26.7716 6.86567C26.8206 6.86567 26.8452 6.8408 26.8452 6.79104V6.64179L26.4774 6.56716ZM26.9187 9.77612V9.92537C26.9187 10 27.0168 10.0995 27.2129 10.2239C27.311 10.0622 27.36 9.91294 27.36 9.77612V9.55224C27.36 9.47761 27.2865 9.40299 27.1394 9.32836C26.9923 9.37811 26.9187 9.52736 26.9187 9.77612ZM32.2142 11.2687V11.3433H32.4348V11.1194H32.3613C32.2632 11.1318 32.2142 11.1816 32.2142 11.2687ZM28.2426 13.7313C28.2916 13.9925 28.3161 14.1418 28.3161 14.1791C28.3161 14.2164 28.2916 14.3657 28.2426 14.6269C28.2426 14.6517 28.2671 14.7512 28.3161 14.9254C28.2671 15.1244 28.2426 15.2985 28.2426 15.4478C28.2426 15.6841 28.3897 15.908 28.6839 16.1194C28.8187 16.1194 28.9413 15.4975 29.0516 14.2537C29.0516 14.1045 29.0761 13.9303 29.1252 13.7313C29.1252 13.4701 28.9535 13.3209 28.6103 13.2836C28.4632 13.3085 28.3406 13.4577 28.2426 13.7313ZM37.7303 14.403C37.7303 14.5025 37.7058 14.5522 37.6568 14.5522L37.7303 14.7015C37.7303 14.7637 37.7058 15.0124 37.6568 15.4478L37.7303 15.8209H37.8774C37.8774 15.709 37.951 15.5597 38.0981 15.3731L37.8039 14.8507L37.8774 14.403H37.7303ZM22.1381 16.791C22.04 16.9527 21.991 17.0771 21.991 17.1642C22.0645 17.3632 22.1381 17.4627 22.2116 17.4627H22.3587C22.4323 17.4627 22.5058 17.3881 22.5794 17.2388C22.5794 16.9403 22.4323 16.791 22.1381 16.791ZM23.8297 17.0896L23.7561 17.6119V20.4478C23.7561 20.9701 23.7316 21.5174 23.6826 22.0896C23.7316 22.2886 23.7561 22.7363 23.7561 23.4328V23.5075C23.7561 23.6692 24.1239 23.7687 24.8594 23.806L24.9329 23.6567V23.5075C24.3935 20.0622 24.1239 18.1219 24.1239 17.6866C24.0748 17.2886 24.0013 17.0896 23.9032 17.0896H23.8297ZM32.0671 17.3881C32.1161 17.5746 32.1406 17.7736 32.1406 17.9851C32.2019 17.9851 32.3 17.8109 32.4348 17.4627C32.4348 17.3632 32.3858 17.3134 32.2877 17.3134H32.2142L32.0671 17.3881ZM26.9923 17.6119V17.7612C27.0045 17.8607 27.0535 17.9104 27.1394 17.9104H27.4335C27.5071 17.9104 27.5806 17.8358 27.6542 17.6866V17.6119C27.6052 17.4627 27.4581 17.3881 27.2129 17.3881C27.1394 17.3881 27.0658 17.4627 26.9923 17.6119ZM32.9497 17.3881L32.5084 20.2985C32.5084 20.796 32.3613 21.8408 32.0671 23.4328C32.0671 23.5945 32.2877 23.7189 32.729 23.806C32.9742 23.7438 33.0968 23.6692 33.0968 23.5821V22.0896C33.0968 21.8781 33.1213 21.6045 33.1703 21.2687L33.0968 21.1194C33.1458 20.7711 33.1948 19.9005 33.2439 18.5075C33.2439 18.3209 33.1703 17.9478 33.0232 17.3881H32.9497ZM32.1406 18.2836V18.5075H32.2142V18.2836H32.1406ZM25.0065 25.3731C25.0187 25.4726 25.0677 25.5224 25.1535 25.5224V25.2239C25.0555 25.2363 25.0065 25.2861 25.0065 25.3731ZM32.729 26.1194V26.8657H32.8761V26.4925C32.8761 26.3682 32.9742 26.2935 33.1703 26.2687C33.1703 26.194 33.0723 26.0945 32.8761 25.9701C32.7781 25.9826 32.729 26.0323 32.729 26.1194ZM21.9174 28.209C21.991 28.408 22.0645 28.5075 22.1381 28.5075H22.9471C23.0206 28.5075 23.0942 28.4328 23.1677 28.2836V28.1343C23.1677 28.0597 23.0942 27.9851 22.9471 27.9104H22.3587C22.1503 27.9104 22.0032 28.01 21.9174 28.209Z" fill="white"/>
<path d="M41.1135 0.746269H43.2465C43.9697 0.746269 44.9503 0.771144 46.1884 0.820896L46.2619 0.970149V1.1194C46.2619 1.19403 46.1884 1.26866 46.0413 1.34328L46.1148 1.71642V2.01493C46.1148 2.21393 46.0903 2.31343 46.0413 2.31343L46.1148 2.83582V5.44776C46.1148 5.68408 46.5071 5.83333 47.2916 5.89552L47.4387 6.56716C47.3406 6.79104 47.2426 6.91542 47.1445 6.9403H46.4826C46.2865 7.0398 46.1884 7.18905 46.1884 7.38806C46.311 7.52488 46.6787 7.62438 47.2916 7.68657L47.3652 7.83582V9.70149C47.3652 9.85075 47.0219 9.95025 46.3355 10C46.1639 10.398 46.0658 10.597 46.0413 10.597L46.1148 10.9701C46.1148 11.1318 46.0903 11.2562 46.0413 11.3433C46.0903 11.6169 46.1148 11.8408 46.1148 12.0149V12.6866C46.2252 12.9353 46.4703 13.0597 46.8503 13.0597H48.1006C48.6523 13.0597 49.3142 13.01 50.0865 12.9104C50.3806 13.1095 50.6013 13.209 50.7484 13.209H54.9406C55.529 13.209 55.8232 13.3085 55.8232 13.5075C55.8232 13.8557 55.7987 14.0547 55.7497 14.1045L55.8232 14.8507C55.8232 15.3483 55.7742 16.0945 55.6761 17.0896C55.7742 17.3383 55.8232 17.5373 55.8232 17.6866C55.8232 17.9478 55.7987 18.4453 55.7497 19.1791C55.7497 19.204 55.7742 19.5274 55.8232 20.1493L55.7497 20.8955L55.8232 21.3433H55.7497L55.8232 21.4925C55.8232 21.5423 55.7987 21.5672 55.7497 21.5672L55.8232 21.7164V22.4627C55.8232 22.6617 55.4555 22.8109 54.72 22.9104C54.5729 23.2587 54.4748 23.4328 54.4258 23.4328C54.5239 23.6194 54.5729 23.8184 54.5729 24.0299V24.3284C54.5729 24.4279 54.5239 24.4776 54.4258 24.4776H53.911C53.8619 24.4776 53.6658 24.5274 53.3226 24.6269H51.4839C51.2142 25.0249 51.0426 25.2239 50.969 25.2239C50.969 25.3234 50.871 25.3731 50.6748 25.3731C50.5523 24.9627 50.4297 24.7139 50.3071 24.6269L49.9394 24.7015H49.7187C49.3265 24.7015 49.0077 24.6269 48.7626 24.4776L48.8361 23.5821L48.7626 23.0597L48.9832 22.6866L49.4981 22.7612H49.7187C49.7923 22.7612 49.8903 22.6617 50.0129 22.4627C50.0129 22.1766 49.9639 21.8781 49.8658 21.5672C49.9148 21.4677 49.9394 21.393 49.9394 21.3433C49.9394 21.0572 49.9148 20.8831 49.8658 20.8209C49.9148 20.1741 49.9394 19.6517 49.9394 19.2537V17.9104C49.9394 17.699 49.8413 17.5 49.6452 17.3134C49.5471 17.3632 49.4735 17.3881 49.4245 17.3881C48.9832 17.2886 48.6645 17.2388 48.4684 17.2388H46.7768C46.5071 17.2388 46.2865 17.3881 46.1148 17.6866C46.1148 17.7861 46.1394 17.8358 46.1884 17.8358C46.0903 18.8806 46.0413 19.602 46.0413 20C46.0903 20 46.1148 20.0249 46.1148 20.0746L45.9677 20.1493C45.7226 20 45.551 19.9254 45.4529 19.9254C45.0974 19.9751 44.8768 20.0249 44.791 20.0746L44.3497 20H44.2761C44.08 20 43.8839 20.0249 43.6877 20.0746L43.32 20L42.2903 20.0746C41.6406 20.0249 41.1013 20 40.6723 20L40.4516 19.7015V10.3731C40.4516 9.98756 40.8439 9.73881 41.6284 9.62687C41.6284 9.29105 41.6529 8.99254 41.7019 8.73134C41.6529 8.55721 41.6284 8.45771 41.6284 8.43284L41.7019 8.0597C41.7019 7.83582 41.3097 7.66169 40.5252 7.53731L40.4516 7.38806V7.16418C40.4516 7.00249 40.8439 6.85323 41.6284 6.71642L41.7019 6.34328C41.7019 6.18159 41.3342 6.00746 40.5987 5.8209C40.5006 5.6592 40.4516 5.50995 40.4516 5.37313V4.1791C40.4516 3.39552 40.4761 2.5995 40.5252 1.79104C40.4761 1.51741 40.4516 1.24378 40.4516 0.970149C40.6355 0.820896 40.8561 0.746269 41.1135 0.746269ZM50.6013 0.746269H53.1019C53.6658 0.746269 54.5239 0.771144 55.6761 0.820896L55.8232 1.04478L55.7497 1.41791C55.7497 1.44279 55.7742 1.54229 55.8232 1.71642C55.7742 2.06468 55.7497 2.36318 55.7497 2.61194C55.7497 2.66169 55.7742 2.73632 55.8232 2.83582L55.7497 2.98507C55.7987 3.68159 55.8232 4.27861 55.8232 4.77612V5.14925C55.8232 5.26119 55.7987 5.3607 55.7497 5.44776C55.8477 5.67164 55.9458 5.79602 56.0439 5.8209H56.7058C56.8529 5.8209 56.951 6.04478 57 6.49254C57 6.79104 56.7303 6.9403 56.191 6.9403C56.0439 6.9403 55.8968 7.08955 55.7497 7.38806C55.8477 7.53731 56.2155 7.63682 56.8529 7.68657L56.9265 7.83582C56.9265 7.94776 56.9019 8.22139 56.8529 8.65672C56.8529 8.69403 56.8774 8.89303 56.9265 9.25373C56.9265 9.70149 56.7794 9.92537 56.4852 9.92537C56.0316 9.92537 55.7865 10.0249 55.7497 10.2239V10.2985C55.7497 10.7214 55.7742 11.393 55.8232 12.3134C55.7252 12.3259 55.6761 12.3756 55.6761 12.4627C54.6955 12.5124 53.96 12.5373 53.4697 12.5373H51.1161C50.871 12.5373 50.5032 12.5622 50.0129 12.6119C50.0129 12.5124 49.9639 12.4627 49.8658 12.4627L49.9394 11.5672V10.8955L49.8658 10.1493C49.9761 9.92537 50.3929 9.75124 51.1161 9.62687C51.1652 8.95522 51.1897 8.45771 51.1897 8.13433C51.1897 7.84826 50.8219 7.64925 50.0865 7.53731L50.0129 7.38806V7.16418C50.0129 7.01493 50.3806 6.86567 51.1161 6.71642L51.1897 6.56716C51.1897 6.16915 51.0181 5.97015 50.6748 5.97015C50.3194 5.97015 50.0742 5.84577 49.9394 5.59701V2.08955L49.8658 1.64179C49.9148 1.55473 49.9394 1.45522 49.9394 1.34328L49.8658 0.970149C50.1232 0.820896 50.3684 0.746269 50.6013 0.746269ZM46.7032 8.43284V8.58209C46.8013 8.58209 46.8503 8.53234 46.8503 8.43284H46.7032ZM55.0142 11.4925V11.7164C55.1123 11.7164 55.1613 11.6667 55.1613 11.5672L55.0142 11.4925ZM42.8787 12.4627V12.6866C42.9277 12.8358 43.0748 12.9104 43.32 12.9104H44.791C45.1587 12.9104 45.3548 12.8358 45.3794 12.6866V12.6119C45.3794 12.4254 45.3058 12.2761 45.1587 12.1642L44.4232 12.3134L43.9819 12.2388H43.32C43.271 12.2388 43.2465 12.2139 43.2465 12.1642C43.0258 12.2637 42.9032 12.3632 42.8787 12.4627ZM54.9406 17.6866L55.0877 17.7612H55.1613C55.3084 17.3756 55.3819 17.102 55.3819 16.9403C55.1245 16.9403 54.9774 17.1891 54.9406 17.6866ZM41.1135 21.1194H44.3497C45.1832 21.2189 45.649 21.2687 45.7471 21.2687H46.1148C46.2129 21.2811 46.2619 21.3308 46.2619 21.4179V21.4925C46.2619 21.7537 46.1884 21.903 46.0413 21.9403C46.1884 22.2139 46.2619 22.4378 46.2619 22.6119C46.0903 22.7612 45.7716 22.8358 45.3058 22.8358C45.3058 22.7861 45.2813 22.7612 45.2323 22.7612L45.0116 23.0597V24.2537C45.0116 24.3408 45.2813 24.49 45.8206 24.7015C45.8697 24.7761 45.8942 24.9254 45.8942 25.1493H46.1884C46.1884 24.8507 46.3355 24.7015 46.6297 24.7015C46.6419 24.801 46.691 24.8507 46.7768 24.8507C46.7155 25.51 46.6665 25.8831 46.6297 25.9701C46.6787 26.306 46.7032 26.5796 46.7032 26.791V28.209C46.7032 28.4577 46.7277 28.8308 46.7768 29.3284C46.6665 29.4154 46.2252 29.5149 45.4529 29.6269L45.0852 29.5522C44.6561 29.602 44.411 29.6269 44.3497 29.6269C43.5529 29.5771 43.1116 29.5522 43.0258 29.5522L42.1432 29.6269L41.9961 29.5522C41.8 29.602 41.6284 29.6269 41.4813 29.6269C41.3587 29.6269 41.1871 29.5522 40.9665 29.403L41.04 28.8806V25C41.04 24.9129 40.8929 24.7886 40.5987 24.6269L40.0839 24.7015H39.8632C39.5936 24.7015 39.3974 24.602 39.2748 24.403V23.2836C39.2748 22.8856 39.5936 22.6866 40.231 22.6866C40.3781 22.5 40.4516 22.3259 40.4516 22.1642V22.0896C40.4516 21.9527 40.4026 21.8035 40.3045 21.6418C40.3045 21.3557 40.5742 21.1816 41.1135 21.1194ZM45.2323 22.0149V22.3134H45.4529C45.5019 22.1393 45.5265 22.0398 45.5265 22.0149H45.2323ZM50.7484 25.6716C50.7974 25.6716 50.9935 25.6965 51.3368 25.7463C51.4961 25.7463 51.6187 25.7214 51.7045 25.6716C52.1213 25.7214 52.4645 25.7463 52.7342 25.7463H53.9845C55.5045 25.7463 56.2645 25.8706 56.2645 26.1194V26.2687L56.191 26.9403C56.24 27.1393 56.2645 27.3134 56.2645 27.4627C55.8723 27.5871 55.6761 27.6866 55.6761 27.7612V28.0597C55.6884 28.1592 55.7374 28.209 55.8232 28.209C55.8355 28.1095 55.8845 28.0597 55.9703 28.0597L56.191 28.4328L56.1174 28.5821C56.2645 28.8308 56.3381 29.0299 56.3381 29.1791C56.3381 29.4154 55.7987 29.5647 54.72 29.6269C54.671 29.6269 54.6465 29.602 54.6465 29.5522L54.1316 29.6269H51.8516C51.7413 29.6269 51.6432 29.602 51.5574 29.5522C51.4716 29.602 51.3736 29.6269 51.2632 29.6269H51.1161C50.8465 29.6269 50.6503 29.5025 50.5277 29.2537C50.5768 28.7562 50.6013 28.3831 50.6013 28.1343L50.5277 27.9851L50.6013 27.8358L50.5277 27.1642C50.5768 26.6169 50.6013 26.1443 50.6013 25.7463L50.7484 25.6716ZM45.7471 26.8657C45.8206 27.0647 45.8942 27.1642 45.9677 27.1642C46.0658 26.8532 46.1639 26.6294 46.2619 26.4925V26.194H46.1884C46.1394 26.194 45.9923 26.4179 45.7471 26.8657ZM46.0413 27.6119L45.9677 27.9851V28.1343C46.0413 28.1343 46.1394 28.0348 46.2619 27.8358V27.6119H46.0413Z" fill="white"/>
</svg>
